<?xml version="1.0" encoding="utf-8"?>
<!-- Generator: Adobe Illustrator 15.0.0, SVG Export Plug-In . SVG Version: 6.00 Build 0)  -->
<!DOCTYPE svg PUBLIC "-//W3C//DTD SVG 1.1//EN" "http://www.w3.org/Graphics/SVG/1.1/DTD/svg11.dtd">
<svg version="1.1" id="Capa_1" xmlns="http://www.w3.org/2000/svg" xmlns:xlink="http://www.w3.org/1999/xlink" x="0px" y="0px"
	 width="116.294px" height="32.663px" viewBox="0 0 116.294 32.663" enable-background="new 0 0 116.294 32.663"
	 xml:space="preserve">
<g>
	<polygon fill="#384E68" points="113.04,7.443 104.968,7.443 104.487,8.778 13.595,8.778 13.117,7.443 3.924,7.443 1.48,8.738 
		1.48,27.231 3.924,31.468 17.834,31.468 18.21,30.134 99.103,30.134 99.479,31.468 113.04,31.468 114.813,27.231 114.813,8.738 	
		"/>
	<polygon fill="#090D29" stroke="#FFFFFF" stroke-miterlimit="10" points="113.009,1.437 104.923,1.437 104.442,2.772 12.947,2.772 
		12.464,1.437 3.257,1.437 1.48,3.781 1.48,23.914 3.257,28.13 17.191,28.13 17.57,26.796 99.048,26.796 99.425,28.13 
		113.009,28.13 114.813,23.914 114.813,3.781 	"/>
</g>
</svg>
