<?xml version="1.0" encoding="utf-8"?>
<!-- Generator: Adobe Illustrator 15.0.0, SVG Export Plug-In . SVG Version: 6.00 Build 0)  -->
<!DOCTYPE svg PUBLIC "-//W3C//DTD SVG 1.1//EN" "http://www.w3.org/Graphics/SVG/1.1/DTD/svg11.dtd">
<svg version="1.1" id="Capa_1" xmlns="http://www.w3.org/2000/svg" xmlns:xlink="http://www.w3.org/1999/xlink" x="0px" y="0px"
	 width="172.892px" height="45.018px" viewBox="0 0 172.892 45.018" enable-background="new 0 0 172.892 45.018"
	 xml:space="preserve">
<g>
	<polygon fill="#384E68" points="170.348,34.957 170.348,8.836 166.336,4.823 100.199,4.823 98.166,8.347 30.495,8.347 28.46,4.823 
		12.861,4.823 2.543,15.143 2.543,37.857 8.672,43.988 34.64,43.988 36.585,40.621 125.912,40.621 127.855,43.988 161.316,43.988 	
		"/>
	<polygon fill="#090D29" stroke="#FFFFFF" stroke-miterlimit="10" points="170.348,31.164 170.348,5.044 166.336,1.031 
		100.199,1.031 98.166,4.555 30.495,4.555 28.46,1.031 12.861,1.031 2.543,11.351 2.543,34.065 8.672,40.196 34.64,40.196 
		36.585,36.828 125.912,36.828 127.855,40.196 161.316,40.196 	"/>
</g>
</svg>
