<?xml version="1.0" encoding="utf-8"?>
<!-- Generator: Adobe Illustrator 15.0.0, SVG Export Plug-In . SVG Version: 6.00 Build 0)  -->
<!DOCTYPE svg PUBLIC "-//W3C//DTD SVG 1.1//EN" "http://www.w3.org/Graphics/SVG/1.1/DTD/svg11.dtd">
<svg version="1.1" id="Capa_1" xmlns="http://www.w3.org/2000/svg" xmlns:xlink="http://www.w3.org/1999/xlink" x="0px" y="0px"
	 width="267.723px" height="254.141px" viewBox="0 0 267.723 254.141" enable-background="new 0 0 267.723 254.141"
	 xml:space="preserve">
<g>
	<polygon fill="#384E68" points="245.889,111.57 192.839,111.57 185.278,124.668 73.551,124.668 65.991,111.57 22.455,111.57 
		1.105,132.92 1.105,233.924 21.321,254.141 48.005,254.141 51.045,248.877 211.014,248.877 214.053,254.141 247.021,254.141 
		267.723,233.439 267.723,133.406 	"/>
	<polygon fill="#182440" stroke="#FFFFFF" stroke-miterlimit="10" points="245.283,0.5 192.233,0.5 184.673,13.598 72.945,13.598 
		65.386,0.5 21.85,0.5 0.5,21.85 0.5,229.531 20.716,249.748 47.399,249.748 50.439,244.484 210.408,244.484 213.447,249.748 
		246.415,249.748 267.117,229.047 267.117,22.336 	"/>
	<line fill="none" stroke="#FFFFFF" stroke-miterlimit="10" x1="59.968" y1="254.141" x2="204.214" y2="254.141"/>
</g>
</svg>
