<?xml version="1.0" encoding="utf-8"?>
<!-- Generator: Adobe Illustrator 15.0.0, SVG Export Plug-In . SVG Version: 6.00 Build 0)  -->
<!DOCTYPE svg PUBLIC "-//W3C//DTD SVG 1.1//EN" "http://www.w3.org/Graphics/SVG/1.1/DTD/svg11.dtd">
<svg version="1.1" id="Capa_1" xmlns="http://www.w3.org/2000/svg" xmlns:xlink="http://www.w3.org/1999/xlink" x="0px" y="0px"
	 width="335.617px" height="147.071px" viewBox="0 0 335.617 147.071" enable-background="new 0 0 335.617 147.071"
	 xml:space="preserve">
<g>
	<polygon fill="#384E68" points="313.283,4.5 231.233,4.5 223.673,17.598 111.945,17.598 104.386,4.5 21.85,4.5 0.5,25.85 
		0.5,126.854 20.716,147.071 47.399,147.071 50.439,141.807 278.408,141.807 281.447,147.071 314.415,147.071 335.117,126.37 
		335.117,26.336 	"/>
	<polygon fill="#182440" stroke="#FFFFFF" stroke-miterlimit="10" points="313.283,0.5 231.233,0.5 223.673,13.598 111.945,13.598 
		104.386,0.5 21.85,0.5 0.5,21.85 0.5,122.854 20.716,143.071 47.399,143.071 50.439,137.807 278.408,137.807 281.447,143.071 
		314.415,143.071 335.117,122.37 335.117,22.336 	"/>
	<line fill="none" stroke="#FFFFFF" stroke-miterlimit="10" x1="59.468" y1="147.071" x2="271.714" y2="147.071"/>
</g>
</svg>
