<?xml version="1.0" encoding="utf-8"?>
<!-- Generator: Adobe Illustrator 15.0.0, SVG Export Plug-In . SVG Version: 6.00 Build 0)  -->
<!DOCTYPE svg PUBLIC "-//W3C//DTD SVG 1.1//EN" "http://www.w3.org/Graphics/SVG/1.1/DTD/svg11.dtd">
<svg version="1.1" id="Capa_1" xmlns="http://www.w3.org/2000/svg" xmlns:xlink="http://www.w3.org/1999/xlink" x="0px" y="0px"
	 width="177.23px" height="72.65px" viewBox="0 0 177.23 72.65" enable-background="new 0 0 177.23 72.65" xml:space="preserve">
<g>
	<path fill="#FFFFFF" d="M129.49,1.213H48.293c-0.276,0-0.5-0.224-0.5-0.5s0.224-0.5,0.5-0.5h81.197c0.276,0,0.5,0.224,0.5,0.5
		S129.767,1.213,129.49,1.213z"/>
	<path fill="#FFFFFF" d="M129.49,72.438H48.293c-0.276,0-0.5-0.224-0.5-0.5s0.224-0.5,0.5-0.5h81.197c0.276,0,0.5,0.224,0.5,0.5
		S129.767,72.438,129.49,72.438z"/>
	<path fill="#FFFFFF" d="M0.5,58.198c-0.133,0-0.267-0.053-0.365-0.158c-0.188-0.202-0.178-0.519,0.024-0.707l8.138-7.609
		c0.201-0.187,0.518-0.179,0.707,0.023c0.188,0.202,0.178,0.519-0.024,0.707l-8.138,7.609C0.745,58.153,0.623,58.198,0.5,58.198z"/>
	<path fill="#FFFFFF" d="M168.592,22.586c-0.134,0-0.267-0.053-0.365-0.159c-0.188-0.202-0.178-0.518,0.023-0.707l8.139-7.609
		c0.202-0.189,0.519-0.178,0.707,0.024c0.188,0.202,0.178,0.518-0.023,0.707l-8.139,7.609
		C168.837,22.542,168.714,22.586,168.592,22.586z"/>
	<path fill="#FFFFFF" d="M176.572,58.361c-0.129,0-0.258-0.05-0.356-0.148l-7.824-7.934c-0.193-0.197-0.191-0.514,0.005-0.708
		c0.197-0.193,0.513-0.19,0.708,0.005l7.824,7.934c0.193,0.197,0.191,0.514-0.005,0.708
		C176.826,58.313,176.699,58.361,176.572,58.361z"/>
	<path fill="#FFFFFF" d="M8.479,22.748c-0.129,0-0.258-0.05-0.356-0.149L0.3,14.666c-0.194-0.197-0.192-0.513,0.005-0.707
		c0.196-0.194,0.513-0.192,0.707,0.005l7.823,7.934c0.194,0.197,0.192,0.513-0.005,0.707C8.733,22.7,8.606,22.748,8.479,22.748z"/>
	<g>
		<polygon fill="#374C66" points="26.926,27.9 34.639,35.613 166.528,35.613 166.528,21.126 176.645,11.479 164.95,0 134.552,0 
			130.069,4.273 46.797,4.273 42.442,0 26.926,0 		"/>
		<polygon fill="#374C66" points="166.528,38.462 33.459,38.462 24.077,29.08 24.077,0 12.043,0 0.729,10.79 11.256,21.126 
			11.256,51.524 0.729,61.861 12.043,72.65 42.442,72.65 46.797,68.377 130.069,68.377 134.552,72.65 164.95,72.65 176.645,61.171 
			166.528,51.524 		"/>
	</g>
	<g>
		<path fill="#FFFFFF" d="M52.299,26.354h-7.83c-0.3,0-0.629-0.053-0.984-0.158c-0.356-0.106-0.686-0.28-0.989-0.522
			c-0.304-0.241-0.557-0.556-0.76-0.942s-0.305-0.861-0.305-1.424v-7.829c0-0.15,0.028-0.292,0.084-0.426
			c0.056-0.133,0.132-0.25,0.229-0.351c0.097-0.1,0.213-0.178,0.347-0.233c0.133-0.056,0.277-0.083,0.434-0.083h9.774v2.17h-8.697
			v6.752c0,0.284,0.074,0.501,0.225,0.651s0.37,0.226,0.66,0.226h7.813V26.354z M51.322,21.463h-6.854v-2.187h6.854V21.463z"/>
		<path fill="#FFFFFF" d="M62.823,23.308c0,0.373-0.047,0.708-0.142,1.006s-0.22,0.56-0.375,0.785
			c-0.156,0.225-0.337,0.417-0.543,0.575c-0.206,0.159-0.422,0.288-0.646,0.389c-0.226,0.1-0.454,0.174-0.685,0.221
			c-0.231,0.048-0.45,0.071-0.655,0.071h-5.876v-2.17h5.859c0.295,0,0.518-0.075,0.667-0.226c0.15-0.15,0.226-0.367,0.226-0.651
			c-0.027-0.578-0.32-0.868-0.876-0.868h-3.364c-0.479,0-0.885-0.083-1.219-0.25c-0.333-0.167-0.604-0.376-0.813-0.626
			s-0.358-0.521-0.45-0.81s-0.138-0.56-0.138-0.81c0-0.484,0.086-0.892,0.258-1.223c0.173-0.331,0.39-0.6,0.651-0.806
			s0.545-0.354,0.852-0.446c0.306-0.092,0.593-0.138,0.859-0.138h5.334v2.17H56.43c-0.111,0-0.198,0.013-0.263,0.037
			c-0.063,0.025-0.111,0.059-0.142,0.101c-0.031,0.042-0.049,0.086-0.055,0.134c-0.005,0.047-0.008,0.093-0.008,0.138
			c0.005,0.089,0.021,0.158,0.05,0.208c0.027,0.051,0.063,0.087,0.104,0.108c0.042,0.022,0.089,0.035,0.142,0.038
			s0.104,0.004,0.154,0.004h3.364c0.556,0,1.029,0.101,1.419,0.301s0.704,0.452,0.943,0.755c0.238,0.304,0.413,0.634,0.521,0.989
			C62.77,22.671,62.823,23.002,62.823,23.308z"/>
		<path fill="#FFFFFF" d="M74.292,23.308c0,0.373-0.048,0.708-0.142,1.006c-0.095,0.298-0.221,0.56-0.376,0.785
			c-0.156,0.225-0.337,0.417-0.543,0.575c-0.206,0.159-0.421,0.288-0.646,0.389c-0.226,0.1-0.452,0.174-0.681,0.221
			c-0.228,0.048-0.445,0.071-0.65,0.071h-3.915v-2.17h3.915c0.289,0,0.506-0.075,0.65-0.226s0.218-0.367,0.218-0.651v-2.921
			c0-0.301-0.074-0.523-0.222-0.668s-0.363-0.217-0.646-0.217h-3.898c-0.295,0-0.518,0.073-0.668,0.221
			c-0.149,0.147-0.225,0.363-0.225,0.647v8.806h-2.171V20.37c0-0.373,0.048-0.707,0.143-1.002s0.221-0.555,0.38-0.78
			c0.158-0.226,0.341-0.417,0.546-0.576c0.206-0.158,0.422-0.288,0.647-0.388c0.226-0.101,0.453-0.174,0.685-0.222
			c0.23-0.047,0.446-0.07,0.646-0.07h3.915c0.372,0,0.706,0.047,1.001,0.142s0.556,0.22,0.781,0.376
			c0.225,0.155,0.417,0.336,0.575,0.542c0.159,0.206,0.288,0.422,0.389,0.646c0.1,0.226,0.174,0.453,0.221,0.681
			c0.048,0.229,0.071,0.445,0.071,0.651V23.308z"/>
		<path fill="#FFFFFF" d="M85.853,20.319c0,0.301-0.053,0.625-0.158,0.973c-0.106,0.348-0.277,0.671-0.514,0.969
			s-0.546,0.546-0.927,0.747c-0.381,0.2-0.845,0.3-1.39,0.3H78.95v-2.062h3.914c0.295,0,0.523-0.09,0.685-0.271
			c0.161-0.181,0.242-0.404,0.242-0.672c0-0.283-0.091-0.506-0.271-0.667c-0.181-0.162-0.399-0.242-0.655-0.242H78.95
			c-0.296,0-0.523,0.09-0.685,0.271c-0.162,0.181-0.242,0.404-0.242,0.672v3.029c0,0.289,0.09,0.515,0.271,0.676
			c0.181,0.162,0.404,0.242,0.672,0.242h3.897v2.07H78.95c-0.301,0-0.625-0.053-0.973-0.158c-0.348-0.106-0.671-0.277-0.969-0.514
			s-0.546-0.545-0.747-0.927c-0.2-0.381-0.3-0.844-0.3-1.39v-3.047c0-0.3,0.053-0.624,0.158-0.972s0.276-0.671,0.514-0.969
			c0.236-0.297,0.545-0.547,0.926-0.747c0.382-0.2,0.845-0.3,1.391-0.3h3.914c0.301,0,0.625,0.053,0.973,0.158
			s0.67,0.277,0.968,0.514s0.547,0.545,0.747,0.926C85.752,19.312,85.853,19.774,85.853,20.319z"/>
		<path fill="#FFFFFF" d="M95.209,19.502h-4.883c-0.295,0-0.518,0.073-0.668,0.221c-0.149,0.147-0.225,0.363-0.225,0.647v5.984
			h-2.171V20.37c0-0.373,0.048-0.707,0.143-1.002s0.221-0.555,0.38-0.78c0.158-0.226,0.341-0.417,0.546-0.576
			c0.206-0.158,0.422-0.288,0.647-0.388c0.226-0.101,0.453-0.174,0.685-0.222c0.23-0.047,0.446-0.07,0.646-0.07h4.899V19.502z"/>
		<path fill="#FFFFFF" d="M105.25,23.366c0,0.301-0.053,0.625-0.158,0.973s-0.277,0.671-0.514,0.968
			c-0.236,0.298-0.545,0.547-0.926,0.747c-0.382,0.2-0.845,0.301-1.391,0.301h-3.914c-0.301,0-0.625-0.053-0.973-0.158
			c-0.348-0.106-0.671-0.277-0.968-0.514c-0.298-0.236-0.547-0.545-0.747-0.927c-0.2-0.381-0.301-0.844-0.301-1.39
			c0-0.301,0.053-0.626,0.158-0.977c0.106-0.351,0.277-0.675,0.514-0.973c0.236-0.297,0.545-0.546,0.927-0.747
			c0.381-0.2,0.844-0.3,1.39-0.3h3.914v2.069h-3.914c-0.295,0-0.523,0.091-0.685,0.271s-0.242,0.405-0.242,0.672
			c0,0.284,0.093,0.505,0.279,0.664c0.187,0.158,0.408,0.237,0.664,0.237h3.897c0.295,0,0.523-0.089,0.685-0.267
			s0.242-0.4,0.242-0.668v-3.03c0-0.283-0.088-0.509-0.263-0.676c-0.176-0.167-0.396-0.25-0.664-0.25h-4.766v-2.062h4.766
			c0.301,0,0.625,0.053,0.973,0.158s0.671,0.277,0.969,0.514c0.297,0.236,0.546,0.545,0.747,0.926c0.2,0.382,0.3,0.845,0.3,1.39
			V23.366z"/>
		<path fill="#FFFFFF" d="M117.103,26.354h-2.17v-5.008c0-0.284-0.049-0.539-0.146-0.764c-0.097-0.226-0.229-0.419-0.396-0.58
			c-0.167-0.162-0.362-0.285-0.588-0.372c-0.226-0.086-0.469-0.129-0.73-0.129h-3.798v6.853h-2.17v-7.946
			c0-0.15,0.027-0.29,0.083-0.421s0.134-0.245,0.234-0.343c0.1-0.097,0.217-0.174,0.351-0.229c0.133-0.056,0.275-0.083,0.425-0.083
			h4.892c0.272,0,0.561,0.03,0.864,0.092c0.303,0.061,0.604,0.159,0.901,0.296c0.297,0.137,0.581,0.309,0.851,0.518
			c0.271,0.209,0.51,0.462,0.719,0.76c0.208,0.298,0.374,0.642,0.496,1.03c0.122,0.39,0.184,0.829,0.184,1.319V26.354z"/>
		<path fill="#FFFFFF" d="M128.905,23.308c0,0.373-0.048,0.708-0.143,1.006s-0.22,0.56-0.375,0.785
			c-0.156,0.225-0.337,0.417-0.543,0.575c-0.206,0.159-0.422,0.288-0.646,0.389c-0.226,0.1-0.454,0.174-0.685,0.221
			c-0.231,0.048-0.449,0.071-0.655,0.071h-3.915c-0.373,0-0.706-0.047-1.001-0.142s-0.556-0.222-0.78-0.38
			c-0.226-0.159-0.418-0.341-0.576-0.547c-0.159-0.206-0.288-0.422-0.389-0.646c-0.1-0.226-0.174-0.454-0.221-0.685
			c-0.048-0.231-0.071-0.447-0.071-0.647V20.37c0-0.557,0.102-1.028,0.305-1.415s0.456-0.701,0.76-0.943
			c0.303-0.242,0.633-0.416,0.989-0.521c0.355-0.105,0.685-0.158,0.984-0.158h3.915v2.17h-3.898c-0.289,0-0.509,0.073-0.659,0.221
			s-0.226,0.363-0.226,0.647v2.921c0,0.295,0.074,0.518,0.222,0.668s0.363,0.226,0.646,0.226h3.915c0.295,0,0.515-0.075,0.659-0.226
			s0.217-0.367,0.217-0.651v-9.79h2.171V23.308z"/>
		<path fill="#FFFFFF" d="M140.79,23.308c0,0.373-0.047,0.708-0.142,1.006s-0.22,0.56-0.376,0.785
			c-0.155,0.225-0.337,0.417-0.542,0.575c-0.206,0.159-0.422,0.288-0.647,0.389c-0.226,0.1-0.453,0.174-0.685,0.221
			c-0.23,0.048-0.449,0.071-0.655,0.071h-3.914c-0.301,0-0.629-0.053-0.985-0.158c-0.355-0.106-0.686-0.28-0.989-0.522
			c-0.303-0.241-0.556-0.556-0.759-0.942s-0.305-0.861-0.305-1.424V20.37c0-0.557,0.102-1.028,0.305-1.415s0.456-0.701,0.759-0.943
			c0.304-0.242,0.634-0.416,0.989-0.521c0.356-0.105,0.685-0.158,0.985-0.158h3.914c0.557,0,1.03,0.1,1.419,0.3
			c0.39,0.2,0.704,0.452,0.943,0.756c0.239,0.303,0.413,0.633,0.521,0.989c0.109,0.355,0.163,0.687,0.163,0.993V23.308z
			 M138.62,20.387c0-0.301-0.075-0.523-0.226-0.668s-0.367-0.217-0.651-0.217h-3.897c-0.289,0-0.509,0.073-0.659,0.221
			s-0.226,0.363-0.226,0.647v2.938c0,0.284,0.075,0.501,0.226,0.651s0.37,0.226,0.659,0.226h3.897c0.295,0,0.515-0.075,0.66-0.226
			c0.145-0.15,0.217-0.367,0.217-0.651V20.387z"/>
		<path fill="#FFFFFF" d="M144.446,25.261c0,0.15-0.028,0.291-0.087,0.422s-0.137,0.245-0.234,0.342
			c-0.097,0.098-0.211,0.175-0.342,0.229c-0.131,0.056-0.269,0.084-0.413,0.084c-0.15,0-0.291-0.028-0.422-0.084
			c-0.131-0.055-0.245-0.132-0.342-0.229c-0.098-0.097-0.174-0.211-0.229-0.342s-0.084-0.271-0.084-0.422
			c0-0.145,0.028-0.282,0.084-0.413s0.132-0.244,0.229-0.342c0.097-0.098,0.211-0.176,0.342-0.233
			c0.131-0.059,0.271-0.088,0.422-0.088c0.145,0,0.282,0.029,0.413,0.088c0.131,0.058,0.245,0.136,0.342,0.233
			c0.098,0.098,0.176,0.211,0.234,0.342S144.446,25.116,144.446,25.261z"/>
		<path fill="#FFFFFF" d="M147.952,25.261c0,0.15-0.028,0.291-0.087,0.422s-0.137,0.245-0.234,0.342
			c-0.097,0.098-0.211,0.175-0.342,0.229c-0.131,0.056-0.269,0.084-0.413,0.084c-0.15,0-0.291-0.028-0.422-0.084
			c-0.131-0.055-0.245-0.132-0.342-0.229c-0.098-0.097-0.174-0.211-0.229-0.342s-0.084-0.271-0.084-0.422
			c0-0.145,0.028-0.282,0.084-0.413s0.132-0.244,0.229-0.342c0.097-0.098,0.211-0.176,0.342-0.233
			c0.131-0.059,0.271-0.088,0.422-0.088c0.145,0,0.282,0.029,0.413,0.088c0.131,0.058,0.245,0.136,0.342,0.233
			c0.098,0.098,0.176,0.211,0.234,0.342S147.952,25.116,147.952,25.261z"/>
		<path fill="#FFFFFF" d="M151.457,25.261c0,0.15-0.028,0.291-0.087,0.422s-0.137,0.245-0.234,0.342
			c-0.097,0.098-0.211,0.175-0.342,0.229c-0.131,0.056-0.269,0.084-0.413,0.084c-0.15,0-0.291-0.028-0.422-0.084
			c-0.131-0.055-0.245-0.132-0.342-0.229c-0.098-0.097-0.174-0.211-0.229-0.342s-0.084-0.271-0.084-0.422
			c0-0.145,0.028-0.282,0.084-0.413s0.132-0.244,0.229-0.342c0.097-0.098,0.211-0.176,0.342-0.233
			c0.131-0.059,0.271-0.088,0.422-0.088c0.145,0,0.282,0.029,0.413,0.088c0.131,0.058,0.245,0.136,0.342,0.233
			c0.098,0.098,0.176,0.211,0.234,0.342S151.457,25.116,151.457,25.261z"/>
	</g>
	<g>
		<g>
			<path fill="#15233F" d="M76.991,59.83h-9.899c-0.155,0-0.3-0.027-0.434-0.083s-0.249-0.133-0.347-0.23
				c-0.098-0.097-0.174-0.212-0.229-0.346s-0.083-0.278-0.083-0.435V47.861h2.17v9.799h8.822V59.83z"/>
			<path fill="#15233F" d="M80.547,59.83h-2.17v-9.022h2.17V59.83z M83.902,48.086l-4.356,1.562l-0.576-1.252l4.015-2.338
				L83.902,48.086z"/>
			<path fill="#15233F" d="M92.525,56.783c0,0.373-0.048,0.708-0.143,1.006s-0.22,0.56-0.375,0.785
				c-0.156,0.225-0.337,0.417-0.543,0.575c-0.206,0.159-0.422,0.288-0.646,0.389c-0.226,0.1-0.454,0.174-0.685,0.221
				c-0.231,0.048-0.449,0.071-0.655,0.071h-3.915c-0.373,0-0.706-0.047-1.001-0.142s-0.556-0.222-0.78-0.38
				c-0.226-0.159-0.418-0.341-0.576-0.547c-0.159-0.206-0.288-0.422-0.389-0.646c-0.1-0.226-0.174-0.454-0.221-0.685
				c-0.048-0.231-0.071-0.447-0.071-0.647v-2.938c0-0.557,0.102-1.028,0.305-1.415s0.456-0.701,0.76-0.943
				c0.303-0.242,0.633-0.416,0.989-0.521c0.355-0.105,0.685-0.158,0.984-0.158h3.915v2.17H85.58c-0.289,0-0.509,0.073-0.659,0.221
				s-0.226,0.363-0.226,0.647v2.921c0,0.295,0.074,0.518,0.222,0.668s0.363,0.226,0.646,0.226h3.915
				c0.295,0,0.515-0.075,0.659-0.226s0.217-0.367,0.217-0.651v-9.79h2.171V56.783z"/>
			<path fill="#15233F" d="M104.302,53.795c0,0.301-0.053,0.625-0.158,0.973c-0.106,0.348-0.277,0.671-0.514,0.969
				s-0.546,0.546-0.927,0.747c-0.381,0.2-0.845,0.3-1.39,0.3h-3.914v-2.062h3.914c0.295,0,0.523-0.09,0.685-0.271
				c0.161-0.181,0.242-0.404,0.242-0.672c0-0.283-0.091-0.506-0.271-0.667c-0.181-0.162-0.399-0.242-0.655-0.242h-3.914
				c-0.296,0-0.523,0.09-0.685,0.271c-0.162,0.181-0.242,0.404-0.242,0.672v3.029c0,0.289,0.09,0.515,0.271,0.676
				c0.181,0.162,0.404,0.242,0.672,0.242h3.897v2.07h-3.914c-0.301,0-0.625-0.053-0.973-0.158c-0.348-0.106-0.671-0.277-0.969-0.514
				s-0.546-0.545-0.747-0.927c-0.2-0.381-0.3-0.844-0.3-1.39v-3.047c0-0.3,0.053-0.624,0.158-0.972s0.276-0.671,0.514-0.969
				c0.236-0.297,0.545-0.547,0.926-0.747c0.382-0.2,0.845-0.3,1.391-0.3h3.914c0.301,0,0.625,0.053,0.973,0.158
				s0.67,0.277,0.968,0.514s0.547,0.545,0.747,0.926C104.201,52.787,104.302,53.25,104.302,53.795z"/>
			<path fill="#15233F" d="M113.658,52.978h-4.883c-0.295,0-0.518,0.073-0.668,0.221c-0.149,0.147-0.225,0.363-0.225,0.647v5.984
				h-2.171v-5.984c0-0.373,0.048-0.707,0.143-1.002s0.221-0.555,0.38-0.78c0.158-0.226,0.341-0.417,0.546-0.576
				c0.206-0.158,0.422-0.288,0.647-0.388c0.226-0.101,0.453-0.174,0.685-0.222c0.23-0.047,0.446-0.07,0.646-0.07h4.899V52.978z"/>
		</g>
	</g>
</g>
</svg>
