<?xml version="1.0" encoding="utf-8"?>
<!-- Generator: Adobe Illustrator 15.0.0, SVG Export Plug-In . SVG Version: 6.00 Build 0)  -->
<!DOCTYPE svg PUBLIC "-//W3C//DTD SVG 1.1//EN" "http://www.w3.org/Graphics/SVG/1.1/DTD/svg11.dtd">
<svg version="1.1" id="Capa_1" xmlns="http://www.w3.org/2000/svg" xmlns:xlink="http://www.w3.org/1999/xlink" x="0px" y="0px"
	 width="48.703px" height="28.99px" viewBox="0 0 48.703 28.99" enable-background="new 0 0 48.703 28.99" xml:space="preserve">
<g>
	<g id="Layer_3_6_">
		<path fill="#384E68" d="M27.186,0H3.02C1.352,0,0,1.354,0,3.021v14.097c0,1.667,1.352,3.021,3.02,3.021h1.875h0.209v4.18
			l5.52-4.18h16.563c1.668,0,3.021-1.354,3.021-3.021V3.021C30.207,1.354,28.854,0,27.186,0z"/>
	</g>
	<g id="Layer_2_6_">
		<path fill="#FFFFFF" d="M45.682,4.672H21.518c-1.668,0-3.021,1.352-3.021,3.021V21.79c0,1.667,1.354,3.021,3.021,3.021h1.354
			l5.52,4.18v-4.18h17.291c1.668,0,3.021-1.354,3.021-3.021V7.692C48.703,6.023,47.35,4.672,45.682,4.672z"/>
	</g>
	<g id="Layer_4_6_">
		<circle fill="#090D29" cx="26.619" cy="14.786" r="2.417"/>
		<circle fill="#090D29" cx="33.91" cy="14.786" r="2.417"/>
		<circle fill="#090D29" cx="40.992" cy="14.786" r="2.417"/>
	</g>
</g>
</svg>
