<?xml version="1.0" encoding="utf-8"?>
<!-- Generator: Adobe Illustrator 15.0.0, SVG Export Plug-In . SVG Version: 6.00 Build 0)  -->
<!DOCTYPE svg PUBLIC "-//W3C//DTD SVG 1.1//EN" "http://www.w3.org/Graphics/SVG/1.1/DTD/svg11.dtd">
<svg version="1.1" id="Capa_1" xmlns="http://www.w3.org/2000/svg" xmlns:xlink="http://www.w3.org/1999/xlink" x="0px" y="0px"
	 width="49.168px" height="28.99px" viewBox="0 0 49.168 28.99" enable-background="new 0 0 49.168 28.99" xml:space="preserve">
<g>
	<g id="Layer_3_5_">
		<path fill="#090D29" d="M27.65,0H3.484c-1.668,0-3.02,1.354-3.02,3.021v14.097c0,1.667,1.352,3.021,3.02,3.021h1.875h0.209v4.18
			l5.52-4.18H27.65c1.668,0,3.021-1.354,3.021-3.021V3.021C30.672,1.354,29.318,0,27.65,0z"/>
	</g>
	<g id="Layer_2_5_">
		<path fill="#182440" d="M46.146,4.672H21.982c-1.668,0-3.021,1.352-3.021,3.021V21.79c0,1.667,1.354,3.021,3.021,3.021h1.354
			l5.52,4.18v-4.18h17.291c1.668,0,3.021-1.354,3.021-3.021V7.692C49.168,6.023,47.814,4.672,46.146,4.672z"/>
	</g>
	<g id="Layer_4_5_">
		<circle fill="#384E68" cx="27.084" cy="14.786" r="2.417"/>
		<circle fill="#384E68" cx="34.375" cy="14.786" r="2.417"/>
		<circle fill="#384E68" cx="41.457" cy="14.786" r="2.417"/>
	</g>
</g>
</svg>
