<?xml version="1.0" encoding="utf-8"?>
<!-- Generator: Adobe Illustrator 15.0.0, SVG Export Plug-In . SVG Version: 6.00 Build 0)  -->
<!DOCTYPE svg PUBLIC "-//W3C//DTD SVG 1.1//EN" "http://www.w3.org/Graphics/SVG/1.1/DTD/svg11.dtd">
<svg version="1.1" id="Capa_1" xmlns="http://www.w3.org/2000/svg" xmlns:xlink="http://www.w3.org/1999/xlink" x="0px" y="0px"
	 width="21.681px" height="18.971px" viewBox="0 0 21.681 18.971" enable-background="new 0 0 21.681 18.971" xml:space="preserve">
<path fill="#FFFFFF" d="M10.841,8.13c-1.495,0-2.71,1.215-2.71,2.71c0,1.496,1.215,2.711,2.71,2.711s2.71-1.215,2.71-2.711
	C13.551,9.345,12.336,8.13,10.841,8.13z M20.326,2.71h-3.392l-0.674-1.665C15.9,0.243,15.478,0,14.906,0H6.775
	C6.204,0,5.78,0.243,5.421,1.045L4.747,2.71H1.355C0.61,2.71,0,3.32,0,4.064v13.551c0,0.745,0.61,1.355,1.355,1.355h18.971
	c0.744,0,1.354-0.61,1.354-1.355V4.064C21.681,3.32,21.07,2.71,20.326,2.71z M10.841,16.261c-2.993,0-5.42-2.428-5.42-5.421
	c0-2.992,2.427-5.42,5.42-5.42s5.42,2.428,5.42,5.42C16.261,13.833,13.834,16.261,10.841,16.261z"/>
</svg>
