<?xml version="1.0" encoding="utf-8"?>
<!-- Generator: Adobe Illustrator 15.0.0, SVG Export Plug-In . SVG Version: 6.00 Build 0)  -->
<!DOCTYPE svg PUBLIC "-//W3C//DTD SVG 1.1//EN" "http://www.w3.org/Graphics/SVG/1.1/DTD/svg11.dtd">
<svg version="1.1" id="Capa_1" xmlns="http://www.w3.org/2000/svg" xmlns:xlink="http://www.w3.org/1999/xlink" x="0px" y="0px"
	 width="175.916px" height="72.65px" viewBox="0 0 175.916 72.65" enable-background="new 0 0 175.916 72.65" xml:space="preserve">
<g>
	
		<line fill="none" stroke="#FFFFFF" stroke-linecap="round" stroke-miterlimit="10" x1="128.762" y1="0.713" x2="47.564" y2="0.713"/>
	
		<line fill="none" stroke="#FFFFFF" stroke-linecap="round" stroke-miterlimit="10" x1="128.762" y1="71.938" x2="47.564" y2="71.938"/>
	
		<line fill="none" stroke="#FFFFFF" stroke-linecap="round" stroke-miterlimit="10" x1="-0.229" y1="57.698" x2="7.909" y2="50.089"/>
	
		<line fill="none" stroke="#FFFFFF" stroke-linecap="round" stroke-miterlimit="10" x1="167.863" y1="22.086" x2="176.002" y2="14.477"/>
	
		<line fill="none" stroke="#FFFFFF" stroke-linecap="round" stroke-miterlimit="10" x1="168.02" y1="49.928" x2="175.844" y2="57.861"/>
	
		<line fill="none" stroke="#FFFFFF" stroke-linecap="round" stroke-miterlimit="10" x1="-0.072" y1="14.314" x2="7.751" y2="22.248"/>
	<g>
		<polygon fill="#384E68" points="26.197,27.9 33.91,35.613 165.8,35.613 165.8,21.126 175.916,11.479 164.222,0 133.823,0 
			129.341,4.273 46.068,4.273 41.714,0 26.197,0 		"/>
		<polygon fill="#384E68" points="165.8,38.462 32.73,38.462 23.349,29.08 23.349,0 11.314,0 0,10.79 10.527,21.126 10.527,51.524 
			0,61.861 11.314,72.65 41.714,72.65 46.068,68.377 129.341,68.377 133.823,72.65 164.222,72.65 175.916,61.171 165.8,51.524 		"/>
	</g>
</g>
</svg>
