<?xml version="1.0" encoding="utf-8"?>
<!-- Generator: Adobe Illustrator 15.0.0, SVG Export Plug-In . SVG Version: 6.00 Build 0)  -->
<!DOCTYPE svg PUBLIC "-//W3C//DTD SVG 1.1//EN" "http://www.w3.org/Graphics/SVG/1.1/DTD/svg11.dtd">
<svg version="1.1" id="Capa_1" xmlns="http://www.w3.org/2000/svg" xmlns:xlink="http://www.w3.org/1999/xlink" x="0px" y="0px"
	 width="173.499px" height="158.553px" viewBox="0 0 173.499 158.553" enable-background="new 0 0 173.499 158.553"
	 xml:space="preserve">
<g>
	<polygon fill="#384E68" points="117.047,82.324 45.085,82.324 33.062,62.745 128.861,62.581 	"/>
	<polygon fill="#384E68" points="81.069,148.405 0,8.761 146.007,8.761 146.007,10.862 3.647,10.862 81.063,144.204 159.398,8.234 
		161.222,9.286 	"/>
	
		<rect x="124.339" y="-11.088" transform="matrix(0.8654 0.501 -0.501 0.8654 56.7318 -52.6808)" fill="#384E68" width="4.204" height="180.728"/>
	<path fill="#FFFFFF" d="M74.545,146.431c-0.361,0-0.711-0.188-0.906-0.521l-20.613-35.355c-0.293-0.502-0.121-1.146,0.379-1.437
		c0.497-0.296,1.142-0.125,1.437,0.377l20.613,35.354c0.293,0.503,0.121,1.147-0.378,1.438
		C74.909,146.385,74.727,146.431,74.545,146.431z"/>
	<path opacity="0.5" fill="#FFFFFF" d="M50.375,104.969c-0.362,0-0.712-0.187-0.906-0.521L36.881,82.854
		c-0.295-0.502-0.124-1.145,0.379-1.438c0.494-0.298,1.142-0.125,1.435,0.378l12.587,21.593c0.293,0.502,0.124,1.146-0.378,1.437
		C50.736,104.923,50.556,104.969,50.375,104.969z"/>
	<path opacity="0.25" fill="#FFFFFF" d="M34.611,77.929c-0.362,0-0.712-0.188-0.907-0.522L23.197,59.383
		c-0.293-0.501-0.124-1.146,0.375-1.437c0.5-0.297,1.145-0.125,1.438,0.377l10.508,18.024c0.293,0.501,0.124,1.146-0.376,1.437
		C34.975,77.884,34.792,77.929,34.611,77.929z"/>
	<path opacity="0.12" fill="#FFFFFF" d="M20.948,54.492c-0.361,0-0.712-0.187-0.906-0.521l-6.034-10.352
		c-0.296-0.501-0.124-1.146,0.378-1.438c0.495-0.295,1.142-0.124,1.438,0.379l6.031,10.351c0.295,0.501,0.124,1.146-0.376,1.438
		C21.313,54.446,21.129,54.492,20.948,54.492z"/>
	<circle fill="#FFFFFF" cx="127.091" cy="37.135" r="2.102"/>
	<circle fill="#FFFFFF" cx="36.712" cy="37.135" r="2.102"/>
</g>
</svg>
