<?xml version="1.0" encoding="utf-8"?>
<!-- Generator: Adobe Illustrator 15.0.0, SVG Export Plug-In . SVG Version: 6.00 Build 0)  -->
<!DOCTYPE svg PUBLIC "-//W3C//DTD SVG 1.1//EN" "http://www.w3.org/Graphics/SVG/1.1/DTD/svg11.dtd">
<svg version="1.1" id="Capa_1" xmlns="http://www.w3.org/2000/svg" xmlns:xlink="http://www.w3.org/1999/xlink" x="0px" y="0px"
	 width="329.425px" height="281.307px" viewBox="0 0 329.425 281.307" enable-background="new 0 0 329.425 281.307"
	 xml:space="preserve">
<g>
	<g>
		<path fill="#374C66" d="M238.973,265.724l-0.257,0.224l8.497,14.544l0.405-0.67L238.973,265.724z"/>
		<polygon fill="#374C66" points="328.427,140.319 247.619,279.822 238.973,265.724 238.716,265.948 238.568,265.724 
			290.398,177.421 290.952,177.421 290.695,176.94 290.398,177.421 39.588,177.421 92.164,266.466 92.831,266.466 84.262,281.307 
			83.519,281.307 1.855,140.319 83.073,0.148 91.719,14.952 47.048,93.943 46.008,95.797 284.279,95.797 238.532,14.917 247.136,0 
					"/>
		<path fill="#FFFFFF" d="M327.57,119.918c-0.636,0-1.259-0.33-1.603-0.917l-62.29-106.374c-0.519-0.884-0.222-2.021,0.662-2.54
			c0.888-0.506,2.023-0.216,2.54,0.664l62.291,106.374c0.519,0.884,0.221,2.021-0.663,2.54
			C328.21,119.834,327.888,119.918,327.57,119.918z"/>
		<path fill="#FFFFFF" d="M264.38,86.041c-0.635,0-1.258-0.33-1.602-0.917l-25.073-42.816c-0.519-0.884-0.221-2.021,0.663-2.54
			c0.889-0.507,2.021-0.221,2.541,0.664l25.071,42.815c0.519,0.884,0.221,2.022-0.662,2.54
			C265.021,85.957,264.699,86.041,264.38,86.041z"/>
		<path fill="#FFFFFF" d="M1.855,119.581c-0.319,0-0.637-0.079-0.932-0.25c-0.883-0.515-1.188-1.649-0.673-2.537L61.621,10.829
			c0.514-0.891,1.656-1.184,2.536-0.673c0.884,0.514,1.188,1.649,0.675,2.537L3.46,118.657
			C3.117,119.251,2.493,119.581,1.855,119.581z"/>
		<path fill="#FFFFFF" d="M64.522,86.041c-0.318,0-0.637-0.079-0.93-0.25c-0.885-0.514-1.189-1.648-0.675-2.536l24.797-42.816
			c0.515-0.888,1.652-1.185,2.537-0.673c0.883,0.514,1.188,1.647,0.673,2.535L66.127,85.117
			C65.784,85.711,65.161,86.041,64.522,86.041z"/>
		<path fill="#FFFFFF" d="M66.541,274.962c-0.634,0-1.253-0.329-1.602-0.916L1.631,165.995c-0.519-0.885-0.222-2.022,0.663-2.54
			c0.888-0.511,2.018-0.221,2.54,0.662l63.309,108.052c0.519,0.885,0.221,2.022-0.664,2.54
			C67.182,274.879,66.859,274.962,66.541,274.962z"/>
		<path fill="#FFFFFF" d="M90.791,244.716c-0.634,0-1.253-0.33-1.601-0.917l-31.275-53.385c-0.519-0.884-0.222-2.021,0.662-2.539
			c0.888-0.508,2.019-0.219,2.54,0.663l31.276,53.384c0.518,0.884,0.221,2.022-0.663,2.54
			C91.433,244.632,91.111,244.716,90.791,244.716z"/>
		<path fill="#FFFFFF" d="M267.804,268.321c-0.319,0-0.638-0.079-0.932-0.249c-0.884-0.516-1.189-1.649-0.674-2.537l58.736-101.41
			c0.514-0.891,1.652-1.185,2.535-0.673c0.885,0.514,1.189,1.647,0.675,2.535l-58.736,101.41
			C269.065,267.992,268.441,268.321,267.804,268.321z"/>
		<path fill="#FFFFFF" d="M238.716,244.716c-0.318,0-0.637-0.081-0.932-0.251c-0.883-0.514-1.188-1.647-0.674-2.535l32.172-55.545
			c0.514-0.891,1.652-1.185,2.535-0.674c0.885,0.515,1.189,1.649,0.675,2.537l-32.171,55.543
			C239.978,244.386,239.353,244.716,238.716,244.716z"/>
	</g>
	<g>
		<path fill="#FFFFFF" d="M78.275,129.705c0,1.565-0.194,2.962-0.58,4.192c-0.387,1.23-0.91,2.316-1.569,3.256
			c-0.659,0.94-1.42,1.745-2.281,2.413c-0.861,0.668-1.763,1.217-2.703,1.648c-0.94,0.431-1.89,0.743-2.848,0.936
			c-0.958,0.194-1.859,0.29-2.703,0.29l14.317,12.366h-10.6L55.02,142.44h-4.931v-6.855h15.504c0.861-0.07,1.648-0.25,2.36-0.541
			s1.327-0.681,1.846-1.173c0.518-0.492,0.918-1.085,1.2-1.78c0.281-0.694,0.422-1.49,0.422-2.386v-4.324
			c0-0.386-0.049-0.681-0.145-0.883c-0.097-0.202-0.22-0.352-0.369-0.448c-0.149-0.096-0.308-0.154-0.475-0.171
			c-0.167-0.017-0.321-0.026-0.461-0.026H47.347v30.955h-6.855V120.45c0-0.475,0.088-0.923,0.264-1.345
			c0.175-0.422,0.417-0.791,0.725-1.107c0.307-0.316,0.672-0.563,1.094-0.738c0.422-0.175,0.879-0.264,1.371-0.264H69.97
			c1.529,0,2.821,0.277,3.876,0.831s1.912,1.249,2.571,2.083c0.659,0.835,1.134,1.736,1.424,2.703
			c0.29,0.967,0.435,1.872,0.435,2.716V129.705z"/>
		<path fill="#FFFFFF" d="M114.768,135.743c0,0.949-0.167,1.974-0.501,3.072c-0.334,1.099-0.875,2.119-1.622,3.059
			c-0.748,0.939-1.723,1.727-2.927,2.359c-1.204,0.633-2.667,0.949-4.39,0.949H92.962v-6.513h12.366
			c0.932,0,1.652-0.286,2.162-0.857c0.51-0.571,0.765-1.279,0.765-2.123c0-0.896-0.286-1.599-0.857-2.109
			c-0.571-0.51-1.262-0.765-2.07-0.765H92.962c-0.932,0-1.652,0.286-2.162,0.857c-0.51,0.571-0.765,1.279-0.765,2.123v9.571
			c0,0.914,0.286,1.626,0.857,2.136c0.571,0.51,1.279,0.765,2.123,0.765h12.313v6.539H92.962c-0.949,0-1.974-0.167-3.072-0.501
			c-1.099-0.334-2.119-0.874-3.059-1.621c-0.94-0.748-1.727-1.723-2.36-2.928c-0.633-1.203-0.949-2.666-0.949-4.39v-9.624
			c0-0.949,0.167-1.973,0.501-3.072c0.333-1.098,0.874-2.118,1.622-3.059c0.747-0.94,1.723-1.727,2.927-2.36
			c1.204-0.633,2.667-0.949,4.39-0.949h12.366c0.949,0,1.973,0.167,3.072,0.501c1.098,0.334,2.118,0.875,3.059,1.622
			c0.94,0.748,1.727,1.723,2.36,2.927C114.451,132.557,114.768,134.02,114.768,135.743z"/>
		<path fill="#FFFFFF" d="M150.812,145.182c0,0.65-0.075,1.336-0.224,2.057c-0.149,0.721-0.382,1.438-0.699,2.148
			c-0.316,0.713-0.725,1.395-1.226,2.044c-0.501,0.65-1.107,1.226-1.819,1.728c-0.712,0.5-1.534,0.9-2.465,1.199
			c-0.932,0.299-1.987,0.448-3.164,0.448h-12.366c-0.65,0-1.336-0.075-2.057-0.224c-0.721-0.149-1.437-0.383-2.149-0.699
			s-1.394-0.725-2.043-1.227c-0.65-0.5-1.226-1.107-1.727-1.818c-0.501-0.713-0.901-1.539-1.2-2.479
			c-0.299-0.94-0.448-2-0.448-3.178v-30.929h6.855v30.929c0,0.844,0.264,1.516,0.791,2.018c0.527,0.5,1.187,0.751,1.978,0.751
			h12.366c0.861,0,1.533-0.255,2.017-0.765c0.483-0.51,0.725-1.178,0.725-2.004v-9.281c0-0.861-0.255-1.533-0.765-2.017
			c-0.51-0.483-1.169-0.725-1.978-0.725h-12.366v-6.855h12.366c0.65,0,1.335,0.075,2.057,0.224c0.721,0.149,1.437,0.382,2.149,0.699
			s1.393,0.725,2.043,1.226c0.65,0.501,1.222,1.107,1.714,1.819c0.492,0.712,0.887,1.534,1.187,2.465
			c0.299,0.932,0.448,1.987,0.448,3.164V145.182z"/>
		<path fill="#FFFFFF" d="M187.33,135.743c0,0.949-0.167,1.974-0.5,3.072c-0.335,1.099-0.875,2.119-1.622,3.059
			c-0.747,0.939-1.723,1.727-2.927,2.359s-2.668,0.949-4.391,0.949h-12.366v-6.513h12.366c0.932,0,1.652-0.286,2.162-0.857
			c0.51-0.571,0.766-1.279,0.766-2.123c0-0.896-0.286-1.599-0.857-2.109c-0.571-0.51-1.262-0.765-2.07-0.765h-12.366
			c-0.932,0-1.652,0.286-2.162,0.857c-0.51,0.571-0.765,1.279-0.765,2.123v9.571c0,0.914,0.286,1.626,0.857,2.136
			c0.571,0.51,1.279,0.765,2.123,0.765h12.313v6.539h-12.366c-0.949,0-1.974-0.167-3.072-0.501
			c-1.099-0.334-2.119-0.874-3.059-1.621c-0.94-0.748-1.727-1.723-2.36-2.928c-0.633-1.203-0.949-2.666-0.949-4.39v-9.624
			c0-0.949,0.167-1.973,0.501-3.072c0.333-1.098,0.874-2.118,1.622-3.059c0.747-0.94,1.723-1.727,2.927-2.36
			c1.204-0.633,2.667-0.949,4.39-0.949h12.366c0.949,0,1.974,0.167,3.072,0.501c1.099,0.334,2.118,0.875,3.059,1.622
			c0.94,0.748,1.727,1.723,2.359,2.927C187.013,132.557,187.33,134.02,187.33,135.743z"/>
		<path fill="#FFFFFF" d="M204.469,154.806h-3.059c-0.984,0-2.035-0.167-3.151-0.501s-2.157-0.883-3.124-1.648
			c-0.967-0.764-1.767-1.757-2.399-2.979c-0.633-1.223-0.949-2.721-0.949-4.496v-30.929h6.855v30.929
			c0,0.844,0.264,1.516,0.791,2.018c0.527,0.5,1.187,0.751,1.978,0.751h3.059V154.806z"/>
		<path fill="#FFFFFF" d="M215.833,120.45h-6.855v-6.196h6.855V120.45z M215.833,154.806h-6.855v-28.503h6.855V154.806z"/>
		<path fill="#FFFFFF" d="M253.406,145.182c0,1.178-0.149,2.237-0.448,3.178c-0.299,0.939-0.694,1.766-1.187,2.479
			c-0.492,0.711-1.063,1.318-1.714,1.818c-0.65,0.502-1.331,0.91-2.044,1.227c-0.711,0.316-1.433,0.55-2.162,0.699
			c-0.729,0.148-1.419,0.224-2.069,0.224h-12.366c-0.949,0-1.986-0.167-3.111-0.501s-2.167-0.883-3.125-1.648
			c-0.958-0.764-1.758-1.757-2.398-2.979c-0.643-1.223-0.963-2.721-0.963-4.496v-9.281c0-1.757,0.32-3.247,0.963-4.469
			c0.641-1.222,1.44-2.215,2.398-2.979s2-1.314,3.125-1.648c1.125-0.333,2.162-0.501,3.111-0.501h12.366
			c1.758,0,3.252,0.316,4.482,0.949s2.224,1.428,2.979,2.386c0.756,0.958,1.305,2,1.648,3.125c0.342,1.125,0.514,2.171,0.514,3.138
			V145.182z M246.55,135.954c0-0.949-0.237-1.652-0.712-2.109c-0.475-0.457-1.16-0.686-2.057-0.686h-12.313
			c-0.914,0-1.608,0.233-2.083,0.699c-0.475,0.466-0.712,1.147-0.712,2.043v9.281c0,0.896,0.237,1.582,0.712,2.057
			s1.169,0.712,2.083,0.712h12.313c0.932,0,1.626-0.237,2.083-0.712s0.686-1.16,0.686-2.057V135.954z"/>
		<path fill="#FFFFFF" d="M290.822,154.806h-6.855v-15.82c0-0.896-0.154-1.701-0.461-2.413c-0.309-0.712-0.726-1.322-1.253-1.833
			c-0.527-0.51-1.147-0.9-1.858-1.173c-0.713-0.272-1.481-0.409-2.308-0.409h-11.997v21.647h-6.855v-25.102
			c0-0.475,0.088-0.918,0.264-1.332c0.176-0.413,0.422-0.773,0.738-1.081c0.316-0.307,0.686-0.549,1.107-0.725
			c0.422-0.175,0.87-0.264,1.345-0.264h15.451c0.861,0,1.771,0.097,2.729,0.29c0.957,0.194,1.906,0.505,2.848,0.936
			c0.939,0.431,1.836,0.976,2.689,1.635c0.852,0.659,1.607,1.459,2.268,2.399c0.658,0.94,1.182,2.026,1.568,3.256
			c0.387,1.23,0.58,2.62,0.58,4.166V154.806z"/>
	</g>
	<g>
		<path fill="#374C66" d="M135.587,195.284c0,0.863-0.15,1.658-0.45,2.383s-0.713,1.35-1.241,1.874s-1.154,0.935-1.879,1.231
			c-0.725,0.296-1.513,0.444-2.363,0.444h-6.941c-0.185,0-0.356-0.032-0.514-0.099s-0.295-0.156-0.41-0.271
			c-0.116-0.115-0.206-0.253-0.272-0.411s-0.099-0.329-0.099-0.515v-11.588c0-0.178,0.033-0.346,0.099-0.504
			s0.156-0.297,0.272-0.416c0.115-0.118,0.252-0.211,0.41-0.276s0.33-0.099,0.514-0.099h6.941c0.851,0,1.638,0.148,2.363,0.445
			c0.725,0.296,1.352,0.707,1.879,1.23s0.941,1.15,1.241,1.879s0.45,1.521,0.45,2.378V195.284z M133.017,192.97
			c0-0.501-0.081-0.96-0.243-1.374c-0.162-0.416-0.39-0.77-0.687-1.063s-0.651-0.521-1.063-0.683
			c-0.412-0.161-0.869-0.242-1.37-0.242h-5.666v9.037h5.666c0.501,0,0.958-0.08,1.37-0.242c0.412-0.161,0.766-0.389,1.063-0.682
			s0.525-0.646,0.687-1.059s0.243-0.871,0.243-1.379V192.97z"/>
		<path fill="#374C66" d="M147.038,195.284h-9.275v-2.313h9.275V195.284z"/>
		<path fill="#374C66" d="M162.255,201.216h-13.022v-4.756c0-0.244,0.028-0.503,0.084-0.776c0.056-0.273,0.143-0.545,0.262-0.815
			s0.272-0.527,0.46-0.771c0.188-0.243,0.415-0.46,0.682-0.647s0.575-0.338,0.924-0.45c0.35-0.112,0.745-0.168,1.187-0.168h5.794
			c0.349,0,0.608-0.087,0.776-0.263c0.168-0.174,0.252-0.43,0.252-0.766v-1.137c0-0.35-0.086-0.613-0.257-0.791
			s-0.422-0.268-0.751-0.268h-8.256v-2.57h8.256c0.435,0,0.827,0.056,1.176,0.168c0.35,0.111,0.658,0.262,0.925,0.449
			c0.267,0.188,0.496,0.404,0.687,0.648c0.191,0.244,0.348,0.499,0.47,0.766c0.122,0.268,0.211,0.537,0.267,0.811
			c0.056,0.274,0.084,0.529,0.084,0.768v1.156c0,0.666-0.121,1.228-0.361,1.686c-0.241,0.459-0.542,0.831-0.905,1.117
			c-0.363,0.287-0.753,0.494-1.172,0.623s-0.809,0.193-1.171,0.193h-5.814c-0.211,0-0.379,0.029-0.504,0.089
			c-0.125,0.06-0.223,0.138-0.292,0.237c-0.069,0.099-0.12,0.211-0.153,0.336c-0.033,0.125-0.059,0.25-0.079,0.376v2.185h10.452
			V201.216z"/>
		<path fill="#374C66" d="M175.771,187.69c0.112,0.205,0.168,0.42,0.168,0.647s-0.056,0.443-0.168,0.647l-7.129,12.231h-2.976
			l6.744-11.608h-8.326v-2.57h10.57c0.23,0,0.446,0.058,0.647,0.173S175.659,187.486,175.771,187.69z"/>
		<path fill="#374C66" d="M193.836,195.284c0,0.58-0.074,1.129-0.223,1.646s-0.357,0.997-0.628,1.438
			c-0.271,0.442-0.59,0.837-0.959,1.187s-0.772,0.647-1.211,0.895c-0.438,0.248-0.905,0.438-1.399,0.568
			c-0.494,0.133-0.999,0.198-1.513,0.198h-4.638c-0.521,0-1.028-0.065-1.522-0.198c-0.494-0.131-0.961-0.32-1.399-0.568
			c-0.438-0.247-0.842-0.545-1.211-0.895s-0.688-0.744-0.954-1.187c-0.267-0.441-0.475-0.921-0.623-1.438s-0.223-1.066-0.223-1.646
			v-2.313c0-0.87,0.163-1.668,0.489-2.394c0.327-0.725,0.764-1.35,1.311-1.873c0.547-0.524,1.178-0.934,1.894-1.227
			c0.715-0.293,1.462-0.439,2.239-0.439h4.638c0.514,0,1.019,0.066,1.513,0.197c0.494,0.133,0.961,0.322,1.399,0.568
			c0.438,0.248,0.842,0.546,1.211,0.896c0.369,0.349,0.688,0.745,0.959,1.187s0.479,0.921,0.628,1.438s0.223,1.066,0.223,1.646
			V195.284z M191.246,192.97c0-0.508-0.092-0.97-0.276-1.385s-0.431-0.771-0.737-1.067s-0.66-0.524-1.063-0.683
			s-0.824-0.233-1.266-0.228h-4.638c-0.429-0.006-0.845,0.068-1.251,0.223c-0.405,0.154-0.765,0.379-1.077,0.672
			c-0.313,0.294-0.563,0.65-0.752,1.068c-0.188,0.419-0.281,0.885-0.281,1.399v2.313c0,0.514,0.092,0.979,0.276,1.395
			c0.185,0.415,0.432,0.77,0.742,1.063c0.31,0.293,0.667,0.52,1.072,0.678s0.829,0.234,1.271,0.227h4.638
			c0.508,0,0.967-0.084,1.379-0.252s0.764-0.4,1.054-0.697c0.29-0.296,0.514-0.65,0.672-1.063s0.237-0.861,0.237-1.35V192.97z
			 M190.128,191.091c0.099,0.146,0.165,0.302,0.197,0.47c0.033,0.168,0.033,0.333,0,0.494c-0.032,0.162-0.097,0.313-0.192,0.455
			s-0.219,0.262-0.371,0.361l-6.94,4.637c-0.112,0.086-0.228,0.145-0.347,0.178c-0.118,0.033-0.24,0.05-0.365,0.05
			c-0.211,0-0.412-0.05-0.604-0.148s-0.346-0.24-0.465-0.425c-0.099-0.145-0.165-0.302-0.197-0.47
			c-0.033-0.169-0.035-0.333-0.005-0.495c0.029-0.161,0.09-0.313,0.183-0.454c0.092-0.142,0.214-0.263,0.366-0.361l6.961-4.638
			c0.145-0.098,0.301-0.164,0.469-0.197c0.169-0.033,0.333-0.033,0.495,0c0.161,0.033,0.313,0.096,0.454,0.188
			C189.91,190.828,190.03,190.946,190.128,191.091z"/>
		<path fill="#374C66" d="M209.014,201.216h-13.022v-4.756c0-0.244,0.028-0.503,0.084-0.776c0.057-0.273,0.144-0.545,0.263-0.815
			c0.118-0.271,0.271-0.527,0.459-0.771c0.188-0.243,0.416-0.46,0.683-0.647s0.575-0.338,0.925-0.45
			c0.349-0.112,0.744-0.168,1.187-0.168h5.794c0.35,0,0.608-0.087,0.776-0.263c0.168-0.174,0.252-0.43,0.252-0.766v-1.137
			c0-0.35-0.086-0.613-0.257-0.791c-0.172-0.178-0.422-0.268-0.752-0.268h-8.256v-2.57h8.256c0.436,0,0.827,0.056,1.177,0.168
			c0.35,0.111,0.657,0.262,0.925,0.449c0.267,0.188,0.496,0.404,0.687,0.648c0.191,0.244,0.348,0.499,0.47,0.766
			c0.122,0.268,0.211,0.537,0.268,0.811c0.056,0.274,0.084,0.529,0.084,0.768v1.156c0,0.666-0.12,1.228-0.361,1.686
			c-0.24,0.459-0.542,0.831-0.904,1.117c-0.362,0.287-0.753,0.494-1.172,0.623s-0.81,0.193-1.172,0.193h-5.813
			c-0.211,0-0.379,0.029-0.505,0.089c-0.125,0.06-0.222,0.138-0.291,0.237c-0.069,0.099-0.121,0.211-0.153,0.336
			c-0.033,0.125-0.06,0.25-0.079,0.376v2.185h10.451V201.216z"/>
	</g>
</g>
</svg>
