<?xml version="1.0" encoding="utf-8"?>
<!-- Generator: Adobe Illustrator 15.0.0, SVG Export Plug-In . SVG Version: 6.00 Build 0)  -->
<!DOCTYPE svg PUBLIC "-//W3C//DTD SVG 1.1//EN" "http://www.w3.org/Graphics/SVG/1.1/DTD/svg11.dtd">
<svg version="1.1" id="Capa_1" xmlns="http://www.w3.org/2000/svg" xmlns:xlink="http://www.w3.org/1999/xlink" x="0px" y="0px"
	 width="173.889px" height="160.675px" viewBox="0 0 173.889 160.675" enable-background="new 0 0 173.889 160.675"
	 xml:space="preserve">
<g>
	<g>
		<path fill="#FFFFFF" d="M69.739,43.337c0,0.738-0.094,1.401-0.28,1.99s-0.434,1.108-0.74,1.559s-0.666,0.834-1.077,1.149
			c-0.412,0.316-0.839,0.575-1.279,0.776s-0.889,0.35-1.343,0.445c-0.455,0.096-0.884,0.144-1.286,0.144H49.322v-3.735h14.411
			c0.719,0,1.276-0.211,1.674-0.633c0.397-0.421,0.597-0.986,0.597-1.695c0-0.345-0.053-0.661-0.158-0.948s-0.257-0.536-0.453-0.747
			s-0.436-0.373-0.718-0.488c-0.283-0.115-0.597-0.173-0.941-0.173h-8.592c-0.604,0-1.255-0.107-1.954-0.323
			c-0.699-0.215-1.349-0.563-1.947-1.041c-0.599-0.479-1.097-1.106-1.494-1.883c-0.397-0.775-0.597-1.724-0.597-2.845
			s0.199-2.066,0.597-2.838c0.397-0.771,0.896-1.398,1.494-1.882s1.248-0.833,1.947-1.049s1.351-0.323,1.954-0.323h12.715v3.735
			H55.141c-0.709,0-1.263,0.216-1.66,0.646c-0.397,0.432-0.596,1.001-0.596,1.71c0,0.719,0.198,1.286,0.596,1.703
			c0.397,0.416,0.951,0.625,1.66,0.625h8.592h0.028c0.402,0.009,0.829,0.064,1.279,0.165s0.897,0.256,1.343,0.467
			c0.446,0.211,0.87,0.477,1.272,0.797c0.401,0.321,0.759,0.707,1.07,1.157c0.311,0.45,0.558,0.968,0.739,1.552
			C69.648,41.938,69.739,42.6,69.739,43.337z"/>
		<path fill="#FFFFFF" d="M93.373,37.418c0,0.853-0.105,1.613-0.314,2.284c-0.211,0.671-0.496,1.262-0.855,1.774
			s-0.773,0.95-1.244,1.314c-0.469,0.364-0.959,0.661-1.473,0.891c-0.512,0.23-1.029,0.397-1.551,0.503
			c-0.522,0.105-1.013,0.158-1.473,0.158h-8.448v-3.735h8.448c0.479-0.038,0.913-0.137,1.301-0.295
			c0.387-0.158,0.721-0.371,0.999-0.64c0.277-0.268,0.492-0.591,0.646-0.97c0.152-0.378,0.23-0.807,0.23-1.285v-1.696
			c-0.049-0.469-0.148-0.899-0.303-1.293c-0.152-0.393-0.361-0.728-0.625-1.006c-0.264-0.277-0.582-0.495-0.955-0.653
			c-0.374-0.158-0.805-0.237-1.294-0.237h-8.419c-0.498,0-0.877,0.13-1.136,0.388c-0.258,0.259-0.388,0.633-0.388,1.121V49.4h-3.735
			V34.041c0-0.958,0.175-1.771,0.524-2.442s0.785-1.212,1.308-1.624c0.521-0.411,1.089-0.711,1.702-0.897
			c0.613-0.188,1.179-0.28,1.695-0.28h8.448c0.843,0,1.6,0.107,2.27,0.323s1.262,0.503,1.775,0.862
			c0.512,0.358,0.947,0.773,1.307,1.242c0.359,0.47,0.656,0.961,0.891,1.473c0.234,0.513,0.404,1.03,0.51,1.552
			c0.105,0.522,0.158,1.014,0.158,1.473V37.418z"/>
		<path fill="#FFFFFF" d="M116.189,35.693c0,0.853-0.107,1.614-0.322,2.284c-0.215,0.671-0.5,1.263-0.855,1.774
			c-0.354,0.513-0.768,0.951-1.242,1.315c-0.475,0.363-0.965,0.663-1.473,0.897c-0.508,0.235-1.023,0.405-1.545,0.51
			c-0.521,0.105-1.014,0.158-1.473,0.158h-1.508V49.4h-3.766v-6.768h-1.494c-0.459,0-0.951-0.053-1.473-0.158
			c-0.521-0.104-1.039-0.274-1.551-0.51c-0.514-0.234-1.004-0.534-1.473-0.897c-0.471-0.364-0.885-0.803-1.244-1.315
			c-0.359-0.512-0.646-1.106-0.861-1.781c-0.215-0.676-0.324-1.435-0.324-2.277v-6.896h3.736v6.896c0,0.488,0.076,0.927,0.23,1.314
			c0.152,0.388,0.367,0.721,0.646,0.999c0.277,0.277,0.615,0.491,1.012,0.639c0.398,0.149,0.842,0.224,1.33,0.224h6.738
			c0.354-0.058,0.719-0.132,1.092-0.224c0.373-0.091,0.713-0.246,1.02-0.467c0.307-0.22,0.561-0.526,0.762-0.919
			s0.303-0.915,0.303-1.566v-6.896h3.734V35.693z"/>
	</g>
</g>
<polygon fill="#374C66" points="117.437,84.446 45.475,84.446 33.451,64.867 129.251,64.703 "/>
<polygon fill="#374C66" points="81.459,150.527 0.39,10.883 146.396,10.883 146.396,12.984 4.037,12.984 81.452,146.326 
	159.788,10.356 161.611,11.408 "/>
<g>
	<path fill="#0D0D28" d="M62.903,78.878h-5.775c-0.148,0-0.307-0.018-0.478-0.053c-0.17-0.034-0.339-0.089-0.505-0.163
		c-0.166-0.073-0.325-0.169-0.478-0.286c-0.151-0.117-0.286-0.259-0.403-0.425c-0.116-0.166-0.21-0.359-0.279-0.579
		c-0.07-0.22-0.105-0.467-0.105-0.742v-4.335c0-0.147,0.018-0.307,0.053-0.477c0.035-0.171,0.089-0.339,0.163-0.505
		c0.074-0.167,0.17-0.325,0.289-0.478c0.119-0.151,0.262-0.286,0.429-0.403c0.166-0.117,0.357-0.21,0.575-0.28
		c0.218-0.069,0.464-0.104,0.739-0.104h5.775v1.601h-5.775c-0.21,0-0.37,0.056-0.48,0.167c-0.111,0.11-0.166,0.274-0.166,0.492
		v4.322c0,0.206,0.056,0.365,0.169,0.478c0.113,0.113,0.272,0.17,0.478,0.17h5.775V78.878z"/>
	<path fill="#0D0D28" d="M69.801,75.184h-5.776v-1.441h5.776V75.184z"/>
	<path fill="#0D0D28" d="M79.277,76.63c0,0.152-0.018,0.313-0.053,0.48c-0.035,0.169-0.09,0.336-0.166,0.502
		s-0.174,0.325-0.293,0.478c-0.119,0.151-0.262,0.286-0.428,0.403s-0.358,0.21-0.575,0.28c-0.218,0.069-0.462,0.104-0.733,0.104
		h-3.62c-0.222,0-0.465-0.039-0.727-0.117c-0.264-0.078-0.507-0.206-0.73-0.385s-0.41-0.41-0.56-0.695
		c-0.15-0.286-0.226-0.636-0.226-1.051v-0.714c0-0.156,0.018-0.32,0.053-0.492c0.035-0.173,0.09-0.343,0.166-0.512
		c0.076-0.168,0.174-0.328,0.293-0.48c0.119-0.151,0.263-0.283,0.431-0.394c-0.074-0.173-0.129-0.347-0.166-0.523
		s-0.056-0.343-0.056-0.499v-0.721c0-0.41,0.075-0.759,0.225-1.046c0.15-0.288,0.337-0.52,0.561-0.696s0.467-0.305,0.729-0.385
		s0.505-0.12,0.727-0.12h2.168c0.274,0,0.522,0.035,0.742,0.104c0.219,0.07,0.412,0.163,0.578,0.28
		c0.167,0.117,0.309,0.252,0.425,0.403c0.117,0.152,0.213,0.311,0.287,0.478c0.073,0.166,0.128,0.334,0.163,0.505
		c0.034,0.17,0.052,0.329,0.052,0.477v0.721c0,0.402-0.071,0.751-0.215,1.047c0.131,0.086,0.254,0.188,0.369,0.305
		s0.216,0.252,0.302,0.403c0.086,0.152,0.154,0.323,0.203,0.515c0.049,0.19,0.074,0.401,0.074,0.631V76.63z M77.657,75.916
		c0-0.205-0.056-0.364-0.169-0.478c-0.113-0.112-0.266-0.169-0.459-0.169h-3.62c-0.197,0-0.354,0.062-0.469,0.185
		c-0.114,0.123-0.172,0.277-0.172,0.462v0.714c0,0.197,0.061,0.354,0.182,0.472s0.273,0.176,0.459,0.176h3.62
		c0.205,0,0.361-0.062,0.468-0.186c0.107-0.123,0.16-0.276,0.16-0.462V75.916z M76.943,72.308c0-0.218-0.056-0.382-0.166-0.492
		c-0.111-0.111-0.271-0.167-0.48-0.167h-2.155c-0.218,0-0.379,0.056-0.483,0.167c-0.104,0.11-0.157,0.271-0.157,0.479v0.721
		c0,0.214,0.055,0.374,0.163,0.48c0.109,0.106,0.264,0.16,0.465,0.16h2.168c0.218,0,0.38-0.055,0.486-0.163s0.16-0.268,0.16-0.478
		V72.308z"/>
	<path fill="#0D0D28" d="M87.492,70.454c0.069,0.127,0.104,0.262,0.104,0.403s-0.035,0.276-0.104,0.403l-4.44,7.617h-1.854
		l4.2-7.229h-5.186v-1.601h6.583c0.144,0,0.278,0.036,0.403,0.107C87.324,70.228,87.422,70.327,87.492,70.454z"/>
	<path fill="#0D0D28" d="M98.742,75.184c0,0.361-0.047,0.703-0.139,1.025c-0.093,0.322-0.223,0.62-0.392,0.896
		c-0.168,0.275-0.367,0.521-0.597,0.739c-0.23,0.218-0.481,0.403-0.755,0.557c-0.272,0.154-0.563,0.272-0.871,0.354
		s-0.622,0.123-0.942,0.123h-2.888c-0.324,0-0.641-0.041-0.948-0.123s-0.599-0.2-0.871-0.354c-0.273-0.153-0.524-0.339-0.755-0.557
		c-0.229-0.218-0.428-0.464-0.594-0.739s-0.296-0.573-0.388-0.896c-0.093-0.322-0.139-0.664-0.139-1.025v-1.441
		c0-0.542,0.102-1.038,0.305-1.49c0.203-0.451,0.475-0.84,0.815-1.167c0.341-0.326,0.734-0.58,1.18-0.763s0.91-0.274,1.395-0.274
		h2.888c0.32,0,0.635,0.041,0.942,0.123s0.599,0.2,0.871,0.354c0.273,0.153,0.524,0.339,0.755,0.557
		c0.229,0.218,0.429,0.464,0.597,0.739c0.169,0.275,0.299,0.573,0.392,0.896c0.092,0.322,0.139,0.664,0.139,1.025V75.184z
		 M97.129,73.742c0-0.315-0.058-0.604-0.173-0.862c-0.115-0.258-0.268-0.479-0.459-0.665c-0.19-0.185-0.411-0.326-0.662-0.425
		c-0.25-0.099-0.513-0.146-0.788-0.142h-2.888c-0.267-0.004-0.526,0.043-0.779,0.139c-0.252,0.097-0.476,0.236-0.671,0.419
		s-0.351,0.404-0.468,0.665s-0.176,0.551-0.176,0.871v1.441c0,0.32,0.058,0.609,0.173,0.868c0.114,0.259,0.269,0.479,0.462,0.662
		c0.192,0.183,0.415,0.323,0.668,0.422c0.252,0.098,0.516,0.146,0.791,0.142h2.888c0.316,0,0.603-0.053,0.859-0.157
		s0.476-0.25,0.656-0.435c0.18-0.185,0.319-0.405,0.418-0.662c0.099-0.256,0.148-0.536,0.148-0.84V73.742z M96.433,72.572
		c0.062,0.091,0.103,0.188,0.123,0.293s0.021,0.207,0,0.308s-0.061,0.195-0.12,0.283s-0.137,0.163-0.23,0.225l-4.323,2.888
		c-0.069,0.054-0.142,0.091-0.215,0.111c-0.074,0.021-0.15,0.03-0.229,0.03c-0.131,0-0.256-0.03-0.375-0.092s-0.216-0.15-0.29-0.265
		c-0.062-0.091-0.103-0.188-0.123-0.293s-0.021-0.207-0.003-0.308s0.057-0.195,0.114-0.283s0.133-0.163,0.228-0.225l4.335-2.889
		c0.091-0.062,0.188-0.103,0.293-0.123c0.104-0.021,0.207-0.021,0.308,0s0.195,0.06,0.283,0.117S96.371,72.482,96.433,72.572z"/>
	<path fill="#0D0D28" d="M108.193,76.63c0,0.152-0.018,0.313-0.053,0.48c-0.035,0.169-0.09,0.336-0.166,0.502
		s-0.174,0.325-0.293,0.478c-0.119,0.151-0.262,0.286-0.428,0.403s-0.358,0.21-0.575,0.28c-0.218,0.069-0.462,0.104-0.733,0.104
		h-3.62c-0.222,0-0.465-0.039-0.727-0.117c-0.264-0.078-0.507-0.206-0.73-0.385s-0.41-0.41-0.56-0.695
		c-0.15-0.286-0.226-0.636-0.226-1.051v-0.714c0-0.156,0.018-0.32,0.053-0.492c0.035-0.173,0.09-0.343,0.166-0.512
		c0.076-0.168,0.174-0.328,0.293-0.48c0.119-0.151,0.263-0.283,0.431-0.394c-0.074-0.173-0.129-0.347-0.166-0.523
		s-0.056-0.343-0.056-0.499v-0.721c0-0.41,0.075-0.759,0.225-1.046c0.15-0.288,0.337-0.52,0.561-0.696s0.467-0.305,0.729-0.385
		s0.505-0.12,0.727-0.12h2.168c0.274,0,0.522,0.035,0.742,0.104c0.219,0.07,0.412,0.163,0.578,0.28
		c0.167,0.117,0.309,0.252,0.425,0.403c0.117,0.152,0.213,0.311,0.287,0.478c0.073,0.166,0.128,0.334,0.163,0.505
		c0.034,0.17,0.052,0.329,0.052,0.477v0.721c0,0.402-0.071,0.751-0.215,1.047c0.131,0.086,0.254,0.188,0.369,0.305
		s0.216,0.252,0.302,0.403c0.086,0.152,0.154,0.323,0.203,0.515c0.049,0.19,0.074,0.401,0.074,0.631V76.63z M106.573,75.916
		c0-0.205-0.056-0.364-0.169-0.478c-0.113-0.112-0.266-0.169-0.459-0.169h-3.62c-0.197,0-0.354,0.062-0.469,0.185
		c-0.114,0.123-0.172,0.277-0.172,0.462v0.714c0,0.197,0.061,0.354,0.182,0.472s0.273,0.176,0.459,0.176h3.62
		c0.205,0,0.361-0.062,0.468-0.186c0.107-0.123,0.16-0.276,0.16-0.462V75.916z M105.859,72.308c0-0.218-0.056-0.382-0.166-0.492
		c-0.111-0.111-0.271-0.167-0.48-0.167h-2.155c-0.218,0-0.379,0.056-0.483,0.167c-0.104,0.11-0.157,0.271-0.157,0.479v0.721
		c0,0.214,0.055,0.374,0.163,0.48c0.109,0.106,0.264,0.16,0.465,0.16h2.168c0.218,0,0.38-0.055,0.486-0.163s0.16-0.268,0.16-0.478
		V72.308z"/>
</g>
<g>
	<path fill="#374C66" d="M9.423,4.693c0,0.353-0.044,0.668-0.131,0.946C9.204,5.917,9.087,6.162,8.938,6.374
		c-0.148,0.212-0.32,0.394-0.515,0.544C8.229,7.069,8.025,7.192,7.813,7.29C7.602,7.387,7.387,7.457,7.171,7.501
		S6.752,7.566,6.562,7.566l3.229,2.79H7.4l-3.225-2.79H3.063V6.02h3.498c0.194-0.016,0.372-0.056,0.532-0.121s0.3-0.154,0.416-0.266
		c0.117-0.11,0.208-0.244,0.271-0.401c0.063-0.156,0.095-0.336,0.095-0.538V3.718c0-0.087-0.011-0.153-0.033-0.199
		C7.821,3.473,7.794,3.439,7.76,3.417C7.727,3.396,7.69,3.383,7.653,3.379C7.615,3.375,7.58,3.373,7.549,3.373H2.445v6.983H0.898
		V2.605c0-0.107,0.02-0.208,0.06-0.304c0.039-0.095,0.094-0.178,0.163-0.25C1.19,1.98,1.273,1.926,1.368,1.886s0.198-0.06,0.31-0.06
		h5.871c0.345,0,0.637,0.063,0.874,0.188c0.238,0.125,0.432,0.281,0.58,0.47c0.149,0.188,0.256,0.392,0.321,0.609
		C9.39,3.312,9.423,3.516,9.423,3.706V4.693z"/>
	<path fill="#374C66" d="M17.655,6.056c0,0.214-0.037,0.445-0.112,0.693c-0.075,0.247-0.197,0.478-0.366,0.689
		s-0.389,0.39-0.66,0.532c-0.271,0.144-0.602,0.215-0.99,0.215h-2.79v-1.47h2.79c0.21,0,0.372-0.064,0.487-0.193
		s0.173-0.288,0.173-0.479c0-0.202-0.064-0.361-0.193-0.477c-0.129-0.114-0.285-0.172-0.467-0.172h-2.79
		c-0.21,0-0.373,0.064-0.488,0.193c-0.114,0.129-0.172,0.288-0.172,0.479v2.159c0,0.206,0.064,0.367,0.193,0.482
		s0.288,0.172,0.479,0.172h2.778v1.476h-2.79c-0.214,0-0.445-0.038-0.693-0.113s-0.478-0.197-0.689-0.365
		c-0.213-0.169-0.39-0.389-0.533-0.661c-0.143-0.271-0.214-0.602-0.214-0.99V6.056c0-0.214,0.038-0.445,0.113-0.693
		c0.075-0.247,0.197-0.478,0.365-0.689c0.169-0.213,0.389-0.39,0.661-0.532c0.271-0.144,0.602-0.215,0.99-0.215h2.79
		c0.214,0,0.445,0.038,0.692,0.113c0.248,0.075,0.479,0.197,0.69,0.366c0.212,0.168,0.39,0.389,0.532,0.66
		S17.655,5.667,17.655,6.056z"/>
	<path fill="#374C66" d="M25.787,8.186c0,0.146-0.017,0.301-0.051,0.464c-0.033,0.162-0.086,0.324-0.157,0.484
		c-0.071,0.161-0.164,0.314-0.276,0.461c-0.113,0.147-0.25,0.277-0.411,0.39c-0.16,0.113-0.346,0.203-0.556,0.271
		c-0.211,0.068-0.448,0.102-0.714,0.102h-2.79c-0.146,0-0.302-0.017-0.464-0.051c-0.163-0.033-0.324-0.086-0.485-0.157
		c-0.16-0.071-0.314-0.164-0.461-0.276c-0.146-0.113-0.276-0.25-0.39-0.411c-0.112-0.16-0.203-0.347-0.271-0.559
		c-0.067-0.213-0.101-0.451-0.101-0.717V1.207h1.546v6.979c0,0.19,0.06,0.342,0.179,0.455c0.119,0.112,0.268,0.169,0.446,0.169h2.79
		c0.194,0,0.346-0.058,0.455-0.172c0.108-0.115,0.163-0.266,0.163-0.452V6.091c0-0.193-0.058-0.346-0.172-0.455
		c-0.115-0.108-0.264-0.163-0.446-0.163h-2.79V3.926h2.79c0.146,0,0.301,0.018,0.464,0.051c0.162,0.034,0.324,0.086,0.484,0.157
		c0.161,0.072,0.314,0.164,0.461,0.277c0.147,0.112,0.276,0.249,0.387,0.41c0.111,0.16,0.2,0.346,0.269,0.557
		c0.067,0.21,0.101,0.447,0.101,0.713V8.186z"/>
	<path fill="#374C66" d="M34.025,6.056c0,0.214-0.037,0.445-0.112,0.693c-0.075,0.247-0.197,0.478-0.366,0.689
		s-0.389,0.39-0.66,0.532c-0.271,0.144-0.602,0.215-0.99,0.215h-2.79v-1.47h2.79c0.21,0,0.372-0.064,0.487-0.193
		s0.173-0.288,0.173-0.479c0-0.202-0.064-0.361-0.193-0.477c-0.129-0.114-0.285-0.172-0.467-0.172h-2.79
		c-0.21,0-0.373,0.064-0.488,0.193c-0.114,0.129-0.172,0.288-0.172,0.479v2.159c0,0.206,0.064,0.367,0.193,0.482
		s0.288,0.172,0.479,0.172h2.778v1.476h-2.79c-0.214,0-0.445-0.038-0.693-0.113s-0.478-0.197-0.689-0.365
		c-0.213-0.169-0.39-0.389-0.533-0.661c-0.143-0.271-0.214-0.602-0.214-0.99V6.056c0-0.214,0.038-0.445,0.113-0.693
		c0.075-0.247,0.197-0.478,0.365-0.689c0.169-0.213,0.389-0.39,0.661-0.532c0.271-0.144,0.602-0.215,0.99-0.215h2.79
		c0.214,0,0.445,0.038,0.692,0.113c0.248,0.075,0.479,0.197,0.69,0.366c0.212,0.168,0.39,0.389,0.532,0.66
		S34.025,5.667,34.025,6.056z"/>
	<path fill="#374C66" d="M37.894,10.356h-0.69c-0.223,0-0.459-0.038-0.711-0.113s-0.487-0.199-0.705-0.371
		c-0.218-0.173-0.398-0.396-0.541-0.673c-0.143-0.275-0.214-0.613-0.214-1.014V1.207h1.546v6.979c0,0.19,0.06,0.342,0.179,0.455
		c0.119,0.112,0.268,0.169,0.446,0.169h0.69V10.356z"/>
	<path fill="#374C66" d="M41.712,10.356h-0.69c-0.223,0-0.459-0.038-0.711-0.113s-0.487-0.199-0.705-0.371
		c-0.218-0.173-0.398-0.396-0.541-0.673c-0.143-0.275-0.214-0.613-0.214-1.014V1.207h1.546v6.979c0,0.19,0.06,0.342,0.179,0.455
		c0.119,0.112,0.268,0.169,0.446,0.169h0.69V10.356z"/>
	<path fill="#374C66" d="M44.275,2.605h-1.546V1.207h1.546V2.605z M44.275,10.356h-1.546V3.926h1.546V10.356z"/>
	<path fill="#374C66" d="M52.753,8.186c0,0.266-0.034,0.504-0.102,0.717c-0.067,0.212-0.156,0.398-0.268,0.559
		c-0.111,0.161-0.24,0.298-0.387,0.411c-0.146,0.112-0.301,0.205-0.461,0.276c-0.161,0.071-0.323,0.124-0.488,0.157
		c-0.164,0.034-0.32,0.051-0.467,0.051h-2.79c-0.214,0-0.448-0.038-0.701-0.113c-0.254-0.075-0.489-0.199-0.705-0.371
		c-0.217-0.173-0.396-0.396-0.542-0.673c-0.145-0.275-0.217-0.613-0.217-1.014V6.091c0-0.396,0.072-0.732,0.217-1.008
		c0.146-0.275,0.325-0.5,0.542-0.672c0.216-0.173,0.451-0.297,0.705-0.372c0.253-0.075,0.487-0.113,0.701-0.113h2.79
		c0.396,0,0.734,0.071,1.012,0.215c0.277,0.143,0.501,0.321,0.672,0.538c0.171,0.216,0.295,0.451,0.372,0.705
		s0.116,0.489,0.116,0.707V8.186z M51.206,6.104c0-0.215-0.054-0.373-0.161-0.477c-0.106-0.103-0.262-0.154-0.464-0.154h-2.777
		c-0.207,0-0.363,0.053-0.471,0.157c-0.106,0.105-0.16,0.259-0.16,0.461v2.095c0,0.202,0.054,0.356,0.16,0.464
		c0.107,0.106,0.264,0.16,0.471,0.16h2.777c0.21,0,0.367-0.054,0.47-0.16c0.104-0.107,0.155-0.262,0.155-0.464V6.104z"/>
	<path fill="#374C66" d="M61.193,10.356h-1.547V6.787c0-0.202-0.035-0.384-0.104-0.544c-0.069-0.161-0.163-0.299-0.282-0.414
		c-0.119-0.114-0.259-0.203-0.42-0.265c-0.16-0.062-0.334-0.092-0.521-0.092h-2.706v4.884h-1.547V4.693
		c0-0.107,0.02-0.207,0.06-0.301c0.04-0.093,0.096-0.174,0.167-0.243s0.154-0.124,0.249-0.164c0.096-0.039,0.196-0.06,0.304-0.06
		h3.486c0.194,0,0.399,0.022,0.615,0.065c0.216,0.044,0.431,0.114,0.643,0.211c0.212,0.098,0.414,0.221,0.606,0.369
		S60.56,4.9,60.708,5.112c0.148,0.213,0.267,0.458,0.354,0.735c0.087,0.277,0.131,0.591,0.131,0.939V10.356z"/>
</g>
<rect x="124.728" y="-8.966" transform="matrix(0.8654 0.501 -0.501 0.8654 57.8474 -52.5904)" fill="#374C66" width="4.204" height="180.728"/>
<path fill="#FFFFFF" d="M74.935,148.553c-0.361,0-0.711-0.188-0.906-0.521l-20.613-35.355c-0.293-0.502-0.121-1.146,0.379-1.437
	c0.497-0.296,1.142-0.125,1.437,0.377l20.613,35.354c0.293,0.503,0.121,1.147-0.378,1.438
	C75.299,148.507,75.116,148.553,74.935,148.553z"/>
<path opacity="0.5" fill="#FFFFFF" d="M50.765,107.091c-0.362,0-0.712-0.187-0.906-0.521L37.271,84.977
	c-0.295-0.502-0.124-1.145,0.379-1.438c0.494-0.298,1.142-0.125,1.435,0.378l12.587,21.593c0.293,0.502,0.124,1.146-0.378,1.437
	C51.126,107.045,50.945,107.091,50.765,107.091z"/>
<path opacity="0.25" fill="#FFFFFF" d="M35.001,80.051c-0.362,0-0.712-0.188-0.907-0.522L23.587,61.505
	c-0.293-0.501-0.124-1.146,0.375-1.437c0.5-0.297,1.145-0.125,1.438,0.377L35.907,78.47c0.293,0.501,0.124,1.146-0.376,1.437
	C35.364,80.006,35.182,80.051,35.001,80.051z"/>
<path opacity="0.12" fill="#FFFFFF" d="M21.338,56.614c-0.361,0-0.712-0.187-0.906-0.521l-6.034-10.352
	c-0.296-0.501-0.124-1.146,0.378-1.438c0.495-0.295,1.142-0.124,1.438,0.379l6.031,10.351c0.295,0.501,0.124,1.146-0.376,1.438
	C21.702,56.568,21.519,56.614,21.338,56.614z"/>
<circle fill="#FFFFFF" cx="127.48" cy="39.257" r="2.102"/>
<circle fill="#FFFFFF" cx="37.102" cy="39.257" r="2.102"/>
</svg>
