<?xml version="1.0" encoding="utf-8"?>
<!-- Generator: Adobe Illustrator 15.0.0, SVG Export Plug-In . SVG Version: 6.00 Build 0)  -->
<!DOCTYPE svg PUBLIC "-//W3C//DTD SVG 1.1//EN" "http://www.w3.org/Graphics/SVG/1.1/DTD/svg11.dtd">
<svg version="1.1" id="Capa_1" xmlns="http://www.w3.org/2000/svg" xmlns:xlink="http://www.w3.org/1999/xlink" x="0px" y="0px"
	 width="36.705px" height="33.363px" viewBox="0 0 36.705 33.363" preserveAspectRatio="xMinYMax meet" enable-background="new 0 0 36.705 33.363" xml:space="preserve">
<g>
	<path fill="#FFFFFF" stroke="#182440" stroke-miterlimit="10" d="M23.053,1.015h-14.1c-1.301,0-2.413,0.791-2.883,1.911
		L1.347,13.971c-0.142,0.36-0.228,0.744-0.228,1.145v3l0.016,0.015l-0.016,0.118c0,1.73,1.402,3.133,3.134,3.133h9.894l-1.496,7.16
		c-0.032,0.156-0.055,0.32-0.055,0.492c0,0.65,0.266,1.238,0.688,1.662l1.669,1.652L25.27,22.031
		c0.563-0.572,0.916-1.355,0.916-2.217V4.148C26.186,2.417,24.783,1.015,23.053,1.015z M29.319,1.015v18.8h6.267v-18.8H29.319z"/>
</g>
</svg>
