<?xml version="1.0" encoding="utf-8"?>
<!-- Generator: Adobe Illustrator 15.0.0, SVG Export Plug-In . SVG Version: 6.00 Build 0)  -->
<!DOCTYPE svg PUBLIC "-//W3C//DTD SVG 1.1//EN" "http://www.w3.org/Graphics/SVG/1.1/DTD/svg11.dtd">
<svg version="1.1" id="Capa_1" xmlns="http://www.w3.org/2000/svg" xmlns:xlink="http://www.w3.org/1999/xlink" x="0px" y="0px"
	 width="52.372px" height="50.998px" viewBox="0 0 52.372 50.998" enable-background="new 0 0 52.372 50.998" xml:space="preserve">
<g>
	<path fill="#384E68" d="M33.013,4.996H12.312c-1.909,0-3.543,1.162-4.232,2.807L1.144,24.018c-0.207,0.529-0.334,1.094-0.334,1.682
		v4.402l0.023,0.021L0.81,30.299c0,2.539,2.06,4.6,4.602,4.6h14.525l-2.197,10.51c-0.047,0.23-0.079,0.471-0.079,0.725
		c0,0.955,0.389,1.816,1.01,2.439l2.451,2.426l15.145-15.146c0.828-0.838,1.346-1.99,1.346-3.254v-23
		C37.612,7.055,35.552,4.996,33.013,4.996z M42.211,4.996v27.602h9.201V4.996H42.211z"/>
	<path fill="#182440" stroke="#FFFFFF" stroke-miterlimit="10" d="M33.013,1H12.312C10.403,1,8.769,2.16,8.08,3.805L1.144,20.021
		c-0.207,0.529-0.334,1.092-0.334,1.68v4.404l0.023,0.021L0.81,26.301c0,2.541,2.06,4.6,4.602,4.6h14.525L17.74,41.412
		c-0.047,0.23-0.079,0.471-0.079,0.723c0,0.955,0.389,1.818,1.01,2.439l2.451,2.428l15.145-15.146
		c0.828-0.84,1.346-1.99,1.346-3.254V5.6C37.612,3.059,35.552,1,33.013,1z M42.211,1v27.602h9.201V1H42.211z"/>
</g>
</svg>
