<?xml version="1.0" encoding="utf-8"?>
<!-- Generator: Adobe Illustrator 15.0.0, SVG Export Plug-In . SVG Version: 6.00 Build 0)  -->
<!DOCTYPE svg PUBLIC "-//W3C//DTD SVG 1.1//EN" "http://www.w3.org/Graphics/SVG/1.1/DTD/svg11.dtd">
<svg version="1.1" id="Capa_1" xmlns="http://www.w3.org/2000/svg" xmlns:xlink="http://www.w3.org/1999/xlink" x="0px" y="0px"
	 width="52.372px" height="50.998px" viewBox="0 0 52.372 50.998" enable-background="new 0 0 52.372 50.998" xml:space="preserve">
<g>
	<path fill="#384E68" d="M19.285,50.998h20.699c1.911,0,3.544-1.148,4.233-2.777l6.936-16.043c0.207-0.523,0.334-1.08,0.334-1.66
		V26.16l-0.024-0.021l0.024-0.174c0-2.514-2.059-4.551-4.602-4.551H32.361l2.196-10.398c0.047-0.227,0.08-0.469,0.08-0.717
		c0-0.943-0.39-1.799-1.011-2.414l-2.45-2.4L16.031,20.471c-0.827,0.83-1.346,1.969-1.346,3.219v22.758
		C14.685,48.959,16.744,50.998,19.285,50.998z M10.083,50.998V23.689H0.884v27.309H10.083z"/>
	<path fill="#182440" stroke="#FFFFFF" stroke-miterlimit="10" d="M19.285,47.002h20.699c1.911,0,3.544-1.15,4.233-2.777
		l6.936-16.043c0.207-0.523,0.334-1.082,0.334-1.664v-4.355l-0.024-0.021l0.024-0.172c0-2.514-2.059-4.551-4.602-4.551H32.361
		l2.196-10.4c0.047-0.227,0.08-0.467,0.08-0.717c0-0.943-0.39-1.799-1.011-2.412l-2.45-2.4L16.031,16.473
		c-0.827,0.83-1.346,1.969-1.346,3.221v22.756C14.685,44.963,16.744,47.002,19.285,47.002z M10.083,47.002V19.693H0.884v27.309
		H10.083z"/>
</g>
</svg>
