<?xml version="1.0" encoding="utf-8"?>
<!-- Generator: Adobe Illustrator 15.0.0, SVG Export Plug-In . SVG Version: 6.00 Build 0)  -->
<!DOCTYPE svg PUBLIC "-//W3C//DTD SVG 1.1//EN" "http://www.w3.org/Graphics/SVG/1.1/DTD/svg11.dtd">
<svg version="1.1" id="Capa_1" xmlns="http://www.w3.org/2000/svg" xmlns:xlink="http://www.w3.org/1999/xlink" x="0px" y="0px"
	 width="36.705px" height="33.363px" viewBox="0 0 36.705 33.363" enable-background="new 0 0 36.705 33.363" preserveAspectRatio="xMinYMax meet" xml:space="preserve">
<g>
	<path fill="#FFFFFF" stroke="#182440" stroke-miterlimit="10" d="M13.836,32.327h14.1c1.301,0,2.413-0.791,2.883-1.91l4.724-11.045
		c0.142-0.361,0.228-0.744,0.228-1.145v-3l-0.016-0.016l0.016-0.117c0-1.73-1.402-3.133-3.134-3.133h-9.894l1.496-7.16
		c0.032-0.156,0.055-0.32,0.055-0.492c0-0.65-0.266-1.238-0.688-1.662l-1.669-1.652L11.619,11.312
		c-0.563,0.572-0.916,1.355-0.916,2.217v15.666C10.703,30.925,12.105,32.327,13.836,32.327z M7.569,32.327V13.528H1.303v18.799
		H7.569z"/>
</g>
</svg>
